<?xml version="1.0" standalone="no"?>
<!DOCTYPE svg PUBLIC "-//W3C//DTD SVG 20010904//EN"
 "http://www.w3.org/TR/2001/REC-SVG-20010904/DTD/svg10.dtd">
<svg version="1.0" xmlns="http://www.w3.org/2000/svg"
 width="16.000000pt" height="16.000000pt" viewBox="0 0 16.000000 16.000000"
 preserveAspectRatio="xMidYMid meet">
<metadata>
Created by potrace 1.11, written by Peter Selinger 2001-2013
</metadata>
<g transform="translate(0.000000,16.000000) scale(0.003125,-0.003125)"
fill="#000000" stroke="none">
<path d="M2399 5116 c-2 -2 -34 -6 -71 -8 -119 -9 -166 -56 -174 -175 -12
-181 -66 -301 -186 -414 -210 -199 -569 -188 -783 24 -63 63 -138 73 -203 30
-64 -44 -218 -186 -312 -288 -122 -133 -140 -163 -134 -222 3 -41 18 -68 70
-123 204 -218 211 -545 17 -759 -109 -121 -244 -181 -438 -196 -90 -7 -123
-25 -150 -82 -25 -51 -30 -114 -29 -363 0 -223 9 -295 42 -330 28 -31 103 -59
162 -61 176 -8 343 -101 443 -246 16 -23 42 -74 59 -115 26 -62 31 -88 34
-179 6 -174 -46 -307 -169 -433 -59 -60 -69 -140 -26 -200 72 -98 232 -263
369 -380 99 -84 158 -82 260 8 117 104 249 155 405 154 129 -1 207 -26 310
-98 148 -103 232 -261 240 -452 5 -139 43 -180 180 -197 93 -11 491 -6 534 8
80 25 111 69 117 165 2 34 6 77 9 96 28 165 144 325 291 402 62 32 82 39 149
54 53 13 158 9 232 -7 110 -24 197 -69 277 -143 52 -48 89 -66 133 -66 35 0
53 9 111 53 115 86 329 301 388 387 48 72 35 142 -41 220 -220 225 -211 586
20 803 59 55 169 117 238 133 9 2 27 6 40 9 12 3 60 8 107 11 176 11 194 51
194 419 0 234 -4 283 -25 326 -30 60 -78 82 -209 95 -295 28 -517 278 -509
572 4 152 56 272 172 396 51 55 63 102 43 166 -21 64 -314 371 -427 446 -33
22 -68 30 -125 26 -11 -1 -54 -31 -95 -67 -80 -71 -144 -105 -248 -134 -114
-32 -282 -22 -371 21 -204 99 -323 280 -335 511 -7 125 -42 175 -135 192 -38
6 -445 17 -451 11z m321 -1722 c306 -54 586 -310 666 -612 53 -200 33 -425
-53 -597 -155 -308 -456 -491 -793 -480 -58 2 -114 5 -125 8 -11 3 -40 10 -65
16 -69 15 -170 59 -235 100 -172 111 -302 278 -364 471 -31 92 -35 129 -34
270 1 174 37 298 131 445 131 206 352 348 597 384 61 9 211 6 275 -5z"/>
</g>
</svg>
